<svg xmlns="http://www.w3.org/2000/svg" viewBox="0 0 256 256" width="256" height="256">
  <defs>
    <linearGradient id="portfolioGradient1" x1="0%" y1="0%" x2="100%" y2="100%">
      <stop offset="0%" style="stop-color:#667eea;stop-opacity:1" />
      <stop offset="100%" style="stop-color:#764ba2;stop-opacity:1" />
    </linearGradient>
    <linearGradient id="portfolioGradient2" x1="0%" y1="0%" x2="100%" y2="100%">
      <stop offset="0%" style="stop-color:#f093fb;stop-opacity:1" />
      <stop offset="100%" style="stop-color:#f5576c;stop-opacity:1" />
    </linearGradient>
  </defs>
  
  <!-- Outer hexagon frame -->
  <path d="M128 16 L218 72 L218 184 L128 240 L38 184 L38 72 Z" 
        fill="none" 
        stroke="url(#portfolioGradient1)" 
        stroke-width="4"/>
  
  <!-- Inner code brackets -->
  <g transform="translate(128, 128)">
    <!-- Left bracket -->
    <path d="M-50,-40 L-70,-20 L-70,20 L-50,40" 
          fill="none" 
          stroke="url(#portfolioGradient2)" 
          stroke-width="8" 
          stroke-linecap="round"
          stroke-linejoin="round"/>
    
    <!-- Right bracket -->
    <path d="M50,-40 L70,-20 L70,20 L50,40" 
          fill="none" 
          stroke="url(#portfolioGradient2)" 
          stroke-width="8" 
          stroke-linecap="round"
          stroke-linejoin="round"/>
    
    <!-- Center dot representing creativity -->
    <circle cx="0" cy="0" r="12" fill="url(#portfolioGradient1)"/>
    
    <!-- Slash through center -->
    <line x1="-20" y1="-30" x2="20" y2="30" 
          stroke="url(#portfolioGradient1)" 
          stroke-width="6" 
          stroke-linecap="round"/>
  </g>
  
  <!-- Corner accents -->
  <circle cx="128" cy="16" r="6" fill="url(#portfolioGradient2)" opacity="0.8"/>
  <circle cx="218" cy="72" r="6" fill="url(#portfolioGradient2)" opacity="0.8"/>
  <circle cx="218" cy="184" r="6" fill="url(#portfolioGradient2)" opacity="0.8"/>
  <circle cx="128" cy="240" r="6" fill="url(#portfolioGradient2)" opacity="0.8"/>
  <circle cx="38" cy="184" r="6" fill="url(#portfolioGradient2)" opacity="0.8"/>
  <circle cx="38" cy="72" r="6" fill="url(#portfolioGradient2)" opacity="0.8"/>
</svg>